<?xml version="1.0" encoding="UTF-8" standalone="no"?>
<!DOCTYPE svg PUBLIC "-//W3C//DTD SVG 1.1//EN"
 "http://www.w3.org/Graphics/SVG/1.1/DTD/svg11.dtd">
<!-- Generated by graphviz version 2.42.3 (20191010.1750)
 -->
<!-- Title: %3 Pages: 1 -->
<svg width="385pt" height="452pt"
 viewBox="0.00 0.00 384.50 452.00" xmlns="http://www.w3.org/2000/svg" xmlns:xlink="http://www.w3.org/1999/xlink">
<g id="graph0" class="graph" transform="scale(1 1) rotate(0) translate(4 448)">
<title>%3</title>
<polygon fill="white" stroke="transparent" points="-4,4 -4,-448 380.5,-448 380.5,4 -4,4"/>
<!-- 4425021968 -->
<g id="node1" class="node">
<title>4425021968</title>
<polygon fill="none" stroke="black" points="199.5,-414 199.5,-440 301.5,-440 301.5,-414 199.5,-414"/>
<text text-anchor="start" x="205.14" y="-422.8" font-family="Times,serif" font-size="14.00">value = 16.6750</text>
<polygon fill="none" stroke="black" points="199.5,-388 199.5,-414 301.5,-414 301.5,-388 199.5,-388"/>
<text text-anchor="start" x="211.36" y="-396.8" font-family="Times,serif" font-size="14.00">grad = 1.0000</text>
<polygon fill="#c2ebff" stroke="transparent" points="199.5,-364 199.5,-388 301.5,-388 301.5,-364 199.5,-364"/>
<polygon fill="none" stroke="black" points="199.5,-364 199.5,-388 301.5,-388 301.5,-364 199.5,-364"/>
<text text-anchor="start" x="246.9" y="-372.4" font-family="Courier,monospace" font-size="12.00" fill="#004261">+</text>
</g>
<!-- 4425021776 -->
<g id="node2" class="node">
<title>4425021776</title>
<polygon fill="none" stroke="black" points="137.5,-294 137.5,-320 232.5,-320 232.5,-294 137.5,-294"/>
<text text-anchor="start" x="143.14" y="-302.8" font-family="Times,serif" font-size="14.00">value = 0.6750</text>
<polygon fill="none" stroke="black" points="137.5,-268 137.5,-294 232.5,-294 232.5,-268 137.5,-268"/>
<text text-anchor="start" x="145.86" y="-276.8" font-family="Times,serif" font-size="14.00">grad = 1.0000</text>
<polygon fill="#c2ebff" stroke="transparent" points="137.5,-244 137.5,-268 232.5,-268 232.5,-244 137.5,-244"/>
<polygon fill="none" stroke="black" points="137.5,-244 137.5,-268 232.5,-268 232.5,-244 137.5,-244"/>
<text text-anchor="start" x="181.4" y="-252.4" font-family="Courier,monospace" font-size="12.00" fill="#004261">/</text>
</g>
<!-- 4425021776&#45;&gt;4425021968 -->
<g id="edge1" class="edge">
<title>4425021776&#45;&gt;4425021968</title>
<path fill="none" stroke="black" d="M207.58,-324.27C212.43,-332.94 217.6,-342.18 222.61,-351.13"/>
<polygon fill="black" stroke="black" points="219.6,-352.93 227.54,-359.95 225.71,-349.52 219.6,-352.93"/>
</g>
<!-- 4425067600 -->
<g id="node3" class="node">
<title>4425067600</title>
<polygon fill="none" stroke="black" points="8.5,-174 8.5,-200 103.5,-200 103.5,-174 8.5,-174"/>
<text text-anchor="start" x="14.14" y="-182.8" font-family="Times,serif" font-size="14.00">value = 3.3750</text>
<polygon fill="none" stroke="black" points="8.5,-148 8.5,-174 103.5,-174 103.5,-148 8.5,-148"/>
<text text-anchor="start" x="16.86" y="-156.8" font-family="Times,serif" font-size="14.00">grad = 0.2000</text>
<polygon fill="#c2ebff" stroke="transparent" points="8.5,-124 8.5,-148 103.5,-148 103.5,-124 8.5,-124"/>
<polygon fill="none" stroke="black" points="8.5,-124 8.5,-148 103.5,-148 103.5,-124 8.5,-124"/>
<text text-anchor="start" x="48.8" y="-132.4" font-family="Courier,monospace" font-size="12.00" fill="#004261">^3</text>
</g>
<!-- 4425067600&#45;&gt;4425021776 -->
<g id="edge2" class="edge">
<title>4425067600&#45;&gt;4425021776</title>
<path fill="none" stroke="black" d="M100.62,-204.27C110.79,-213.58 121.67,-223.53 132.12,-233.08"/>
<polygon fill="black" stroke="black" points="129.88,-235.78 139.63,-239.95 134.61,-230.62 129.88,-235.78"/>
</g>
<!-- 4425021520 -->
<g id="node4" class="node">
<title>4425021520</title>
<polygon fill="none" stroke="black" points="8.5,-54 8.5,-80 103.5,-80 103.5,-54 8.5,-54"/>
<text text-anchor="start" x="14.14" y="-62.8" font-family="Times,serif" font-size="14.00">value = 1.5000</text>
<polygon fill="none" stroke="black" points="8.5,-28 8.5,-54 103.5,-54 103.5,-28 8.5,-28"/>
<text text-anchor="start" x="16.86" y="-36.8" font-family="Times,serif" font-size="14.00">grad = 1.3500</text>
<polygon fill="#c9c9c9" stroke="transparent" points="8.5,-4 8.5,-28 103.5,-28 103.5,-4 8.5,-4"/>
<polygon fill="none" stroke="black" points="8.5,-4 8.5,-28 103.5,-28 103.5,-4 8.5,-4"/>
<text text-anchor="start" x="38" y="-12.4" font-family="Courier,monospace" font-size="12.00">input</text>
</g>
<!-- 4425021520&#45;&gt;4425067600 -->
<g id="edge3" class="edge">
<title>4425021520&#45;&gt;4425067600</title>
<path fill="none" stroke="black" d="M55.5,-84.27C55.5,-92.49 55.5,-101.22 55.5,-109.73"/>
<polygon fill="black" stroke="black" points="52,-109.95 55.5,-119.95 59,-109.95 52,-109.95"/>
</g>
<!-- 4425021712 -->
<g id="node5" class="node">
<title>4425021712</title>
<polygon fill="none" stroke="black" points="137.5,-174 137.5,-200 232.5,-200 232.5,-174 137.5,-174"/>
<text text-anchor="start" x="143.14" y="-182.8" font-family="Times,serif" font-size="14.00">value = 5.0000</text>
<polygon fill="none" stroke="black" points="137.5,-148 137.5,-174 232.5,-174 232.5,-148 137.5,-148"/>
<text text-anchor="start" x="143.53" y="-156.8" font-family="Times,serif" font-size="14.00">grad = &#45;0.1350</text>
<polygon fill="#c9c9c9" stroke="transparent" points="137.5,-124 137.5,-148 232.5,-148 232.5,-124 137.5,-124"/>
<polygon fill="none" stroke="black" points="137.5,-124 137.5,-148 232.5,-148 232.5,-124 137.5,-124"/>
<text text-anchor="start" x="167" y="-132.4" font-family="Courier,monospace" font-size="12.00">input</text>
</g>
<!-- 4425021712&#45;&gt;4425021776 -->
<g id="edge4" class="edge">
<title>4425021712&#45;&gt;4425021776</title>
<path fill="none" stroke="black" d="M184.5,-204.27C184.5,-212.49 184.5,-221.22 184.5,-229.73"/>
<polygon fill="black" stroke="black" points="181,-229.95 184.5,-239.95 188,-229.95 181,-229.95"/>
</g>
<!-- 4425021904 -->
<g id="node6" class="node">
<title>4425021904</title>
<polygon fill="none" stroke="black" points="266.5,-294 266.5,-320 368.5,-320 368.5,-294 266.5,-294"/>
<text text-anchor="start" x="272.14" y="-302.8" font-family="Times,serif" font-size="14.00">value = 16.0000</text>
<polygon fill="none" stroke="black" points="266.5,-268 266.5,-294 368.5,-294 368.5,-268 266.5,-268"/>
<text text-anchor="start" x="278.36" y="-276.8" font-family="Times,serif" font-size="14.00">grad = 1.0000</text>
<polygon fill="#c2ebff" stroke="transparent" points="266.5,-244 266.5,-268 368.5,-268 368.5,-244 266.5,-244"/>
<polygon fill="none" stroke="black" points="266.5,-244 266.5,-268 368.5,-268 368.5,-244 266.5,-244"/>
<text text-anchor="start" x="303.1" y="-252.4" font-family="Courier,monospace" font-size="12.00" fill="#004261">relu</text>
</g>
<!-- 4425021904&#45;&gt;4425021968 -->
<g id="edge5" class="edge">
<title>4425021904&#45;&gt;4425021968</title>
<path fill="none" stroke="black" d="M294.07,-324.27C289.14,-332.94 283.9,-342.18 278.82,-351.13"/>
<polygon fill="black" stroke="black" points="275.7,-349.53 273.81,-359.95 281.79,-352.98 275.7,-349.53"/>
</g>
<!-- 4425021584 -->
<g id="node7" class="node">
<title>4425021584</title>
<polygon fill="none" stroke="black" points="266.5,-174 266.5,-200 368.5,-200 368.5,-174 266.5,-174"/>
<text text-anchor="start" x="272.14" y="-182.8" font-family="Times,serif" font-size="14.00">value = 16.0000</text>
<polygon fill="none" stroke="black" points="266.5,-148 266.5,-174 368.5,-174 368.5,-148 266.5,-148"/>
<text text-anchor="start" x="278.36" y="-156.8" font-family="Times,serif" font-size="14.00">grad = 1.0000</text>
<polygon fill="#c2ebff" stroke="transparent" points="266.5,-124 266.5,-148 368.5,-148 368.5,-124 266.5,-124"/>
<polygon fill="none" stroke="black" points="266.5,-124 266.5,-148 368.5,-148 368.5,-124 266.5,-124"/>
<text text-anchor="start" x="310.3" y="-132.4" font-family="Courier,monospace" font-size="12.00" fill="#004261">^2</text>
</g>
<!-- 4425021584&#45;&gt;4425021904 -->
<g id="edge6" class="edge">
<title>4425021584&#45;&gt;4425021904</title>
<path fill="none" stroke="black" d="M317.5,-204.27C317.5,-212.49 317.5,-221.22 317.5,-229.73"/>
<polygon fill="black" stroke="black" points="314,-229.95 317.5,-239.95 321,-229.95 314,-229.95"/>
</g>
<!-- 4425021456 -->
<g id="node8" class="node">
<title>4425021456</title>
<polygon fill="none" stroke="black" points="267.5,-54 267.5,-80 367.5,-80 367.5,-54 267.5,-54"/>
<text text-anchor="start" x="273.31" y="-62.8" font-family="Times,serif" font-size="14.00">value = &#45;4.0000</text>
<polygon fill="none" stroke="black" points="267.5,-28 267.5,-54 367.5,-54 367.5,-28 267.5,-28"/>
<text text-anchor="start" x="276.03" y="-36.8" font-family="Times,serif" font-size="14.00">grad = &#45;8.0000</text>
<polygon fill="#c9c9c9" stroke="transparent" points="267.5,-4 267.5,-28 367.5,-28 367.5,-4 267.5,-4"/>
<polygon fill="none" stroke="black" points="267.5,-4 267.5,-28 367.5,-28 367.5,-4 267.5,-4"/>
<text text-anchor="start" x="299.5" y="-12.4" font-family="Courier,monospace" font-size="12.00">input</text>
</g>
<!-- 4425021456&#45;&gt;4425021584 -->
<g id="edge7" class="edge">
<title>4425021456&#45;&gt;4425021584</title>
<path fill="none" stroke="black" d="M317.5,-84.27C317.5,-92.49 317.5,-101.22 317.5,-109.73"/>
<polygon fill="black" stroke="black" points="314,-109.95 317.5,-119.95 321,-109.95 314,-109.95"/>
</g>
</g>
</svg>